<svg width="32" height="32" viewBox="0 0 32 32" fill="none" xmlns="http://www.w3.org/2000/svg">
<path fill-rule="evenodd" clip-rule="evenodd" d="M4.22941 6.89599C2.66675 8.45733 2.66675 10.972 2.66675 16C2.66675 21.028 2.66675 23.5427 4.22941 25.104C5.79208 26.6653 8.30541 26.6667 13.3334 26.6667H18.6667C23.6947 26.6667 26.2094 26.6667 27.7707 25.104C29.3321 23.5413 29.3334 21.028 29.3334 16C29.3334 10.972 29.3334 8.45733 27.7707 6.89599C26.2081 5.33466 23.6947 5.33333 18.6667 5.33333H13.3334C8.30541 5.33333 5.79075 5.33333 4.22941 6.89599ZM24.7681 10.0267C24.9377 10.2304 25.0196 10.4931 24.9956 10.7572C24.9716 11.0212 24.8437 11.2649 24.6401 11.4347L21.7121 13.8747C20.5294 14.8613 19.5721 15.6587 18.7254 16.2027C17.8454 16.7693 16.9881 17.1267 16.0001 17.1267C15.0121 17.1267 14.1547 16.768 13.2734 16.2027C12.4281 15.6587 11.4707 14.86 10.2881 13.876L7.36008 11.436C7.15622 11.2663 7.02813 11.0225 7.004 10.7583C6.97987 10.4941 7.06168 10.2312 7.23141 10.0273C7.40115 9.82347 7.64492 9.69538 7.9091 9.67125C8.17328 9.64712 8.43622 9.72892 8.64008 9.89866L11.5201 12.2973C12.7641 13.3333 13.6267 14.0507 14.3574 14.52C15.0627 14.9733 15.5414 15.1267 16.0014 15.1267C16.4614 15.1267 16.9401 14.9747 17.6454 14.52C18.3747 14.0507 19.2387 13.3333 20.4827 12.2973L23.3614 9.89733C23.5653 9.72782 23.8282 9.64622 24.0922 9.67047C24.3562 9.69473 24.5985 9.82285 24.7681 10.0267Z" fill="white"/>
</svg>
