<svg width="29" height="29" viewBox="0 0 29 29" fill="none" xmlns="http://www.w3.org/2000/svg">
<path fill-rule="evenodd" clip-rule="evenodd" d="M3.83279 6.24948C2.41663 7.66444 2.41663 9.94336 2.41663 14.5C2.41663 19.0566 2.41663 21.3355 3.83279 22.7505C5.24896 24.1654 7.52667 24.1666 12.0833 24.1666H16.9166C21.4732 24.1666 23.7522 24.1666 25.1671 22.7505C26.5821 21.3343 26.5833 19.0566 26.5833 14.5C26.5833 9.94336 26.5833 7.66444 25.1671 6.24948C23.751 4.83452 21.4732 4.83331 16.9166 4.83331H12.0833C7.52667 4.83331 5.24775 4.83331 3.83279 6.24948ZM22.446 9.08665C22.5997 9.27127 22.6739 9.50939 22.6521 9.74866C22.6304 9.98794 22.5145 10.2088 22.33 10.3626L19.6765 12.5739C18.6047 13.4681 17.7371 14.1906 16.9698 14.6836C16.1723 15.1972 15.3953 15.521 14.5 15.521C13.6046 15.521 12.8276 15.196 12.0289 14.6836C11.2628 14.1906 10.3953 13.4669 9.32346 12.5751L6.66996 10.3639C6.48521 10.21 6.36913 9.98911 6.34726 9.7497C6.3254 9.51029 6.39953 9.272 6.55335 9.08725C6.70718 8.9025 6.9281 8.78642 7.16751 8.76456C7.40692 8.74269 7.64521 8.81682 7.82996 8.97065L10.44 11.1444C11.5673 12.0833 12.3491 12.7334 13.0113 13.1587C13.6505 13.5696 14.0843 13.7085 14.5012 13.7085C14.918 13.7085 15.3518 13.5708 15.991 13.1587C16.652 12.7334 17.435 12.0833 18.5624 11.1444L21.1712 8.96944C21.3559 8.81582 21.5942 8.74187 21.8334 8.76385C22.0727 8.78583 22.2923 8.90194 22.446 9.08665Z" fill="#FAFC97"/>
</svg>
