<svg width="109" height="73" viewBox="0 0 109 73" fill="none" xmlns="http://www.w3.org/2000/svg">
<path d="M13.4722 51.48H15.1322V62.22H13.4722V51.48ZM14.6522 56.18H17.7922V57.56H14.6522V56.18ZM9.35219 62.6C13.0122 62.6 15.2922 63.9 15.2922 66.08C15.2922 68.26 13.0122 69.54 9.35219 69.54C5.69219 69.54 3.41219 68.26 3.41219 66.08C3.41219 63.9 5.69219 62.6 9.35219 62.6ZM9.35219 63.96C6.67219 63.96 5.03219 64.72 5.03219 66.08C5.03219 67.4 6.67219 68.18 9.35219 68.18C12.0322 68.18 13.6722 67.4 13.6722 66.08C13.6722 64.72 12.0322 63.96 9.35219 63.96ZM1.89219 59.44H3.29219C7.03219 59.44 9.13219 59.32 11.5522 58.82L11.7522 60.18C9.25219 60.68 7.11219 60.8 3.29219 60.8H1.89219V59.44ZM1.89219 52.86H9.87219V54.22H3.53219V60.32H1.89219V52.86ZM31.4306 51.5H33.1106V64.74H31.4306V51.5ZM21.4906 67.8H33.6506V69.16H21.4906V67.8ZM21.4906 63.52H23.1306V68.44H21.4906V63.52ZM22.9906 52.48H24.3706V54.32C24.3706 57.84 22.3706 60.92 19.3306 62.16L18.4706 60.82C21.1906 59.76 22.9906 57.12 22.9906 54.32V52.48ZM23.2906 52.48H24.6506V54.32C24.6506 57.04 26.4706 59.5 29.1706 60.48L28.2906 61.82C25.2906 60.66 23.2906 57.76 23.2906 54.32V52.48ZM41.3491 52.78C44.1691 52.78 46.1891 54.52 46.1891 57.04C46.1891 59.58 44.1691 61.32 41.3491 61.32C38.5291 61.32 36.4891 59.58 36.4891 57.04C36.4891 54.52 38.5291 52.78 41.3491 52.78ZM41.3491 54.22C39.4691 54.22 38.1091 55.36 38.1091 57.04C38.1091 58.72 39.4691 59.88 41.3491 59.88C43.2091 59.88 44.5691 58.72 44.5691 57.04C44.5691 55.36 43.2091 54.22 41.3491 54.22ZM48.5491 51.46H50.2091V69.58H48.5491V51.46ZM35.8091 65.62L35.5691 64.24C38.8691 64.24 43.4291 64.22 47.3691 63.6L47.5091 64.82C43.4491 65.6 39.0291 65.62 35.8091 65.62ZM70.2325 51.46H71.8925V69.58H70.2325V51.46ZM62.3525 52.86C65.0325 52.86 66.9525 55.32 66.9525 59.16C66.9525 63.02 65.0325 65.48 62.3525 65.48C59.6925 65.48 57.7725 63.02 57.7725 59.16C57.7725 55.32 59.6925 52.86 62.3525 52.86ZM62.3525 54.36C60.5925 54.36 59.3525 56.24 59.3525 59.16C59.3525 62.1 60.5925 64.02 62.3525 64.02C64.1325 64.02 65.3525 62.1 65.3525 59.16C65.3525 56.24 64.1325 54.36 62.3525 54.36ZM79.1109 52.86C81.7709 52.86 83.6509 55.32 83.6509 59.16C83.6509 63.02 81.7709 65.48 79.1109 65.48C76.4509 65.48 74.5709 63.02 74.5709 59.16C74.5709 55.32 76.4509 52.86 79.1109 52.86ZM79.1109 54.36C77.3509 54.36 76.1509 56.24 76.1509 59.16C76.1509 62.1 77.3509 64.02 79.1109 64.02C80.8509 64.02 82.0709 62.1 82.0709 59.16C82.0709 56.24 80.8509 54.36 79.1109 54.36ZM87.7509 56.02H91.0709V57.42H87.7509V56.02ZM87.7509 61.4H91.0709V62.8H87.7509V61.4ZM86.5309 51.48H88.2109V69.56H86.5309V51.48ZM104.669 51.48H106.329V69.56H104.669V51.48ZM99.3694 53.42H101.009C101.009 58.66 98.6494 63.24 92.6094 66.2L91.7294 64.86C96.9494 62.34 99.3694 58.5 99.3694 53.7V53.42ZM92.5494 53.42H100.089V54.78H92.5494V53.42Z" fill="white"/>
<path d="M58.25 18.5625V15.375C59.2813 14.9375 60.3362 14.6094 61.415 14.3906C62.4937 14.1719 63.6263 14.0625 64.8125 14.0625C65.625 14.0625 66.4219 14.125 67.2031 14.25C67.9844 14.375 68.75 14.5313 69.5 14.7188V17.7188C68.75 17.4375 67.9919 17.2269 67.2256 17.0869C66.4594 16.9469 65.655 16.8763 64.8125 16.875C63.625 16.875 62.4844 17.0238 61.3906 17.3213C60.2969 17.6188 59.25 18.0325 58.25 18.5625ZM58.25 28.875V25.6875C59.2813 25.25 60.3362 24.9219 61.415 24.7031C62.4937 24.4844 63.6263 24.375 64.8125 24.375C65.625 24.375 66.4219 24.4375 67.2031 24.5625C67.9844 24.6875 68.75 24.8438 69.5 25.0313V28.0313C68.75 27.75 67.9919 27.5388 67.2256 27.3975C66.4594 27.2563 65.655 27.1863 64.8125 27.1875C63.625 27.1875 62.4844 27.3281 61.3906 27.6094C60.2969 27.8906 59.25 28.3125 58.25 28.875ZM58.25 23.7188V20.5313C59.2813 20.0938 60.3362 19.7656 61.415 19.5469C62.4937 19.3281 63.6263 19.2188 64.8125 19.2188C65.625 19.2188 66.4219 19.2813 67.2031 19.4063C67.9844 19.5313 68.75 19.6875 69.5 19.875V22.875C68.75 22.5938 67.9919 22.3825 67.2256 22.2413C66.4594 22.1 65.655 22.03 64.8125 22.0313C63.625 22.0313 62.4844 22.18 61.3906 22.4775C60.2969 22.775 59.25 23.1888 58.25 23.7188ZM56.375 31.9688C57.75 31.3125 59.1331 30.82 60.5244 30.4913C61.9156 30.1625 63.345 29.9988 64.8125 30C65.9375 30 67.0394 30.0938 68.1181 30.2813C69.1969 30.4688 70.2825 30.75 71.375 31.125V12.5625C70.3437 12.125 69.2731 11.7969 68.1631 11.5781C67.0531 11.3594 65.9363 11.25 64.8125 11.25C63.3437 11.25 61.8906 11.4375 60.4531 11.8125C59.0156 12.1875 57.6563 12.75 56.375 13.5V31.9688ZM54.5 37.5C53 36.3125 51.375 35.3906 49.625 34.7344C47.875 34.0781 46.0625 33.75 44.1875 33.75C42.875 33.75 41.5863 33.9219 40.3213 34.2656C39.0563 34.6094 37.845 35.0938 36.6875 35.7188C36.0313 36.0625 35.3988 36.0469 34.79 35.6719C34.1813 35.2969 33.8762 34.75 33.875 34.0313V11.4375C33.875 11.0938 33.9613 10.7656 34.1338 10.4531C34.3063 10.1406 34.5637 9.90626 34.9062 9.75001C36.375 9.03126 37.8831 8.47626 39.4306 8.08501C40.9781 7.69376 42.5638 7.49876 44.1875 7.50001C46 7.50001 47.7738 7.73438 49.5088 8.20313C51.2438 8.67188 52.9075 9.37501 54.5 10.3125C56.0938 9.37501 57.7581 8.67188 59.4931 8.20313C61.2281 7.73438 63.0012 7.50001 64.8125 7.50001C66.4375 7.50001 68.0238 7.69563 69.5713 8.08688C71.1188 8.47813 72.6263 9.03251 74.0938 9.75001C74.4375 9.90626 74.6956 10.1406 74.8681 10.4531C75.0406 10.7656 75.1262 11.0938 75.125 11.4375V34.0313C75.125 34.75 74.8206 35.2969 74.2119 35.6719C73.6031 36.0469 72.97 36.0625 72.3125 35.7188C71.1562 35.0938 69.9456 34.6094 68.6806 34.2656C67.4156 33.9219 66.1262 33.75 64.8125 33.75C62.9375 33.75 61.125 34.0781 59.375 34.7344C57.625 35.3906 56 36.3125 54.5 37.5Z" fill="white"/>
</svg>
