<svg width="28" height="28" viewBox="0 0 28 28" fill="none" xmlns="http://www.w3.org/2000/svg">
<path d="M11.0748 21.2776C10.7321 21.0074 10.3841 20.739 10.0346 20.4695C8.57296 19.3423 7.08525 18.195 5.85498 16.8098C4.36486 15.1321 3.33325 13.1844 3.33325 10.6598C3.33325 8.19717 4.72455 6.13846 6.61356 5.275C8.43949 4.44038 10.9103 4.64947 13.2794 7.11124L13.9999 7.85996L14.7205 7.11124C17.0895 4.64959 19.5601 4.44095 21.3861 5.27596C23.2753 6.13986 24.6666 8.19896 24.6666 10.661C24.6666 13.1851 23.6352 15.1327 22.1453 16.8103C20.913 18.1978 19.4219 19.3467 17.9575 20.4751C17.6108 20.7422 17.2655 21.0083 16.9255 21.2761L16.9244 21.277C16.3101 21.7622 15.7695 22.1815 15.2509 22.4845C14.7319 22.7878 14.3295 22.9167 13.9999 22.9167C13.6705 22.9167 13.2682 22.7877 12.749 22.4843C12.2301 22.181 11.6895 21.762 11.0748 21.2776ZM11.0748 21.2776L10.4559 22.0624L11.0745 21.2774C11.0746 21.2775 11.0747 21.2775 11.0748 21.2776Z" stroke="white" stroke-width="2"/>
</svg>
