<svg width="45" height="45" viewBox="0 0 45 45" fill="none" xmlns="http://www.w3.org/2000/svg">
<path d="M26.25 18.5625V15.375C27.2813 14.9375 28.3362 14.6094 29.415 14.3906C30.4937 14.1719 31.6263 14.0625 32.8125 14.0625C33.625 14.0625 34.4219 14.125 35.2031 14.25C35.9844 14.375 36.75 14.5313 37.5 14.7188V17.7188C36.75 17.4375 35.9919 17.2269 35.2256 17.0869C34.4594 16.9469 33.655 16.8763 32.8125 16.875C31.625 16.875 30.4844 17.0238 29.3906 17.3213C28.2969 17.6188 27.25 18.0325 26.25 18.5625ZM26.25 28.875V25.6875C27.2813 25.25 28.3362 24.9219 29.415 24.7031C30.4937 24.4844 31.6263 24.375 32.8125 24.375C33.625 24.375 34.4219 24.4375 35.2031 24.5625C35.9844 24.6875 36.75 24.8438 37.5 25.0313V28.0313C36.75 27.75 35.9919 27.5388 35.2256 27.3975C34.4594 27.2563 33.655 27.1863 32.8125 27.1875C31.625 27.1875 30.4844 27.3281 29.3906 27.6094C28.2969 27.8906 27.25 28.3125 26.25 28.875ZM26.25 23.7188V20.5313C27.2813 20.0938 28.3362 19.7656 29.415 19.5469C30.4937 19.3281 31.6263 19.2188 32.8125 19.2188C33.625 19.2188 34.4219 19.2813 35.2031 19.4063C35.9844 19.5313 36.75 19.6875 37.5 19.875V22.875C36.75 22.5938 35.9919 22.3825 35.2256 22.2413C34.4594 22.1 33.655 22.03 32.8125 22.0313C31.625 22.0313 30.4844 22.18 29.3906 22.4775C28.2969 22.775 27.25 23.1888 26.25 23.7188ZM24.375 31.9688C25.75 31.3125 27.1331 30.82 28.5244 30.4913C29.9156 30.1625 31.345 29.9988 32.8125 30C33.9375 30 35.0394 30.0938 36.1181 30.2813C37.1969 30.4688 38.2825 30.75 39.375 31.125V12.5625C38.3437 12.125 37.2731 11.7969 36.1631 11.5781C35.0531 11.3594 33.9363 11.25 32.8125 11.25C31.3437 11.25 29.8906 11.4375 28.4531 11.8125C27.0156 12.1875 25.6563 12.75 24.375 13.5V31.9688ZM22.5 37.5C21 36.3125 19.375 35.3906 17.625 34.7344C15.875 34.0781 14.0625 33.75 12.1875 33.75C10.875 33.75 9.58625 33.9219 8.32125 34.2656C7.05625 34.6094 5.845 35.0938 4.6875 35.7188C4.03125 36.0625 3.39875 36.0469 2.79 35.6719C2.18125 35.2969 1.87625 34.75 1.875 34.0313V11.4375C1.875 11.0938 1.96125 10.7656 2.13375 10.4531C2.30625 10.1406 2.56375 9.90626 2.90625 9.75001C4.375 9.03126 5.88313 8.47626 7.43063 8.08501C8.97813 7.69376 10.5638 7.49876 12.1875 7.50001C14 7.50001 15.7738 7.73438 17.5088 8.20313C19.2438 8.67188 20.9075 9.37501 22.5 10.3125C24.0938 9.37501 25.7581 8.67188 27.4931 8.20313C29.2281 7.73438 31.0012 7.50001 32.8125 7.50001C34.4375 7.50001 36.0238 7.69563 37.5713 8.08688C39.1188 8.47813 40.6263 9.03251 42.0938 9.75001C42.4375 9.90626 42.6956 10.1406 42.8681 10.4531C43.0406 10.7656 43.1262 11.0938 43.125 11.4375V34.0313C43.125 34.75 42.8206 35.2969 42.2119 35.6719C41.6031 36.0469 40.97 36.0625 40.3125 35.7188C39.1562 35.0938 37.9456 34.6094 36.6806 34.2656C35.4156 33.9219 34.1262 33.75 32.8125 33.75C30.9375 33.75 29.125 34.0781 27.375 34.7344C25.625 35.3906 24 36.3125 22.5 37.5Z" fill="#BCBF1F"/>
</svg>
