<svg width="47" height="47" viewBox="0 0 47 47" fill="none" xmlns="http://www.w3.org/2000/svg">
<path d="M3.91666 37.2084C3.91666 40.5376 6.46249 43.0834 9.79166 43.0834H37.2083C40.5375 43.0834 43.0833 40.5376 43.0833 37.2084V21.5417H3.91666V37.2084ZM37.2083 7.83342H33.2917V5.87508C33.2917 4.70008 32.5083 3.91675 31.3333 3.91675C30.1583 3.91675 29.375 4.70008 29.375 5.87508V7.83342H17.625V5.87508C17.625 4.70008 16.8417 3.91675 15.6667 3.91675C14.4917 3.91675 13.7083 4.70008 13.7083 5.87508V7.83342H9.79166C6.46249 7.83342 3.91666 10.3792 3.91666 13.7084V17.6251H43.0833V13.7084C43.0833 10.3792 40.5375 7.83342 37.2083 7.83342Z" fill="white"/>
</svg>
