<svg width="358" height="330" viewBox="0 0 358 330" fill="none" xmlns="http://www.w3.org/2000/svg">
<g filter="url(#filter0_d_195_112)">
<circle cx="179" cy="94" r="67" fill="#CED118"/>
</g>
<g filter="url(#filter1_d_195_112)">
<circle cx="94" cy="236" r="67" fill="#CED118"/>
</g>
<g filter="url(#filter2_d_195_112)">
<circle cx="264" cy="236" r="67" fill="#CED118"/>
</g>
<path d="M175.027 91.825H179.102V94.55H175.027V91.825ZM172.552 83.05H175.902V106.2H172.552V83.05ZM158.452 85.275H161.777V99.65H158.452V85.275ZM158.452 97.8H160.452C163.752 97.8 167.327 97.575 171.052 96.825L171.402 99.55C167.577 100.35 163.852 100.55 160.452 100.55H158.452V97.8ZM188 94.475H191.3V99.05H188V94.475ZM181.9 88.725H197.875V91.375H181.9V88.725ZM181.9 83.4H185.2V89.975H181.9V83.4ZM179.275 93.1H200.225V95.75H179.275V93.1ZM181.85 97.8H197.65V105.975H181.85V97.8ZM194.425 100.4H185.1V103.35H194.425V100.4Z" fill="white"/>
<path d="M83.402 227.725H88.827V230.375H83.402V227.725ZM83.227 232.525H88.652V235.175H83.227V232.525ZM88.302 224.075H91.627V237.4H88.302V224.075ZM80.752 225.65H84.302C84.302 231.95 80.752 236 73.727 237.925L72.427 235.3C78.302 233.775 80.752 230.875 80.752 227.25V225.65ZM73.702 225.65H83.077V228.3H73.702V225.65ZM83.952 237.7C88.652 237.7 91.777 239.5 91.777 242.4C91.777 245.3 88.652 247.125 83.952 247.125C79.252 247.125 76.127 245.3 76.127 242.4C76.127 239.5 79.252 237.7 83.952 237.7ZM83.952 240.25C81.127 240.25 79.427 240.975 79.427 242.4C79.427 243.825 81.127 244.525 83.952 244.525C86.802 244.525 88.502 243.825 88.502 242.4C88.502 240.975 86.802 240.25 83.952 240.25ZM98.95 228.125H101.625V228.975C101.625 233 99.575 236.625 95.15 237.9L93.6 235.3C97.325 234.25 98.95 231.6 98.95 228.975V228.125ZM99.575 228.125H102.275V228.975C102.275 231.35 103.925 233.775 107.65 234.75L106.15 237.325C101.7 236.15 99.575 232.775 99.575 228.975V228.125ZM94.4 226.475H106.825V229.075H94.4V226.475ZM98.95 224H102.275V227.5H98.95V224ZM106.175 230.25H110.6V232.925H106.175V230.25ZM109.8 224.075H113.125V238.05H109.8V224.075ZM105.275 238.45C110.175 238.45 113.2 240.05 113.2 242.825C113.2 245.6 110.175 247.225 105.275 247.225C100.375 247.225 97.35 245.6 97.35 242.825C97.35 240.05 100.375 238.45 105.275 238.45ZM105.275 240.975C102.25 240.975 100.675 241.575 100.675 242.825C100.675 244.075 102.25 244.7 105.275 244.7C108.325 244.7 109.9 244.075 109.9 242.825C109.9 241.575 108.325 240.975 105.275 240.975Z" fill="white"/>
<path d="M243.277 234.95H264.227V237.6H243.277V234.95ZM252.102 231.475H255.402V235.975H252.102V231.475ZM245.802 230.425H261.852V233.05H245.802V230.425ZM245.802 225.075H261.727V227.675H249.102V232.1H245.802V225.075ZM253.677 238.75C258.677 238.75 261.702 240.275 261.702 243C261.702 245.725 258.677 247.25 253.677 247.25C248.677 247.25 245.627 245.725 245.627 243C245.627 240.275 248.677 238.75 253.677 238.75ZM253.677 241.25C250.577 241.25 249.002 241.825 249.002 243C249.002 244.2 250.577 244.725 253.677 244.725C256.777 244.725 258.352 244.2 258.352 243C258.352 241.825 256.777 241.25 253.677 241.25ZM281.325 224.075H284.475V238.575H281.325V224.075ZM278.5 229.775H282.2V232.475H278.5V229.775ZM276.525 224.525H279.625V237.825H276.525V224.525ZM264.65 226.45H275.875V229H264.65V226.45ZM270.3 229.75C273.2 229.75 275.3 231.4 275.3 233.8C275.3 236.2 273.2 237.825 270.3 237.825C267.4 237.825 265.3 236.2 265.3 233.8C265.3 231.4 267.4 229.75 270.3 229.75ZM270.3 232.125C269.075 232.125 268.25 232.725 268.25 233.8C268.25 234.875 269.075 235.475 270.3 235.475C271.5 235.475 272.325 234.875 272.325 233.8C272.325 232.725 271.5 232.125 270.3 232.125ZM268.625 224.3H271.9V228.2H268.625V224.3ZM276.65 238.825C281.6 238.825 284.6 240.325 284.6 243.025C284.6 245.7 281.6 247.225 276.65 247.225C271.675 247.225 268.675 245.7 268.675 243.025C268.675 240.325 271.675 238.825 276.65 238.825ZM276.65 241.3C273.55 241.3 272 241.825 272 243.025C272 244.2 273.55 244.75 276.65 244.75C279.725 244.75 281.275 244.2 281.275 243.025C281.275 241.825 279.725 241.3 276.65 241.3Z" fill="white"/>
<defs>
<filter id="filter0_d_195_112" x="85.4" y="0.4" width="187.2" height="187.2" filterUnits="userSpaceOnUse" color-interpolation-filters="sRGB">
<feFlood flood-opacity="0" result="BackgroundImageFix"/>
<feColorMatrix in="SourceAlpha" type="matrix" values="0 0 0 0 0 0 0 0 0 0 0 0 0 0 0 0 0 0 127 0" result="hardAlpha"/>
<feOffset/>
<feGaussianBlur stdDeviation="13.3"/>
<feComposite in2="hardAlpha" operator="out"/>
<feColorMatrix type="matrix" values="0 0 0 0 0 0 0 0 0 0 0 0 0 0 0 0 0 0 0.15 0"/>
<feBlend mode="normal" in2="BackgroundImageFix" result="effect1_dropShadow_195_112"/>
<feBlend mode="normal" in="SourceGraphic" in2="effect1_dropShadow_195_112" result="shape"/>
</filter>
<filter id="filter1_d_195_112" x="0.4" y="142.4" width="187.2" height="187.2" filterUnits="userSpaceOnUse" color-interpolation-filters="sRGB">
<feFlood flood-opacity="0" result="BackgroundImageFix"/>
<feColorMatrix in="SourceAlpha" type="matrix" values="0 0 0 0 0 0 0 0 0 0 0 0 0 0 0 0 0 0 127 0" result="hardAlpha"/>
<feOffset/>
<feGaussianBlur stdDeviation="13.3"/>
<feComposite in2="hardAlpha" operator="out"/>
<feColorMatrix type="matrix" values="0 0 0 0 0 0 0 0 0 0 0 0 0 0 0 0 0 0 0.15 0"/>
<feBlend mode="normal" in2="BackgroundImageFix" result="effect1_dropShadow_195_112"/>
<feBlend mode="normal" in="SourceGraphic" in2="effect1_dropShadow_195_112" result="shape"/>
</filter>
<filter id="filter2_d_195_112" x="170.4" y="142.4" width="187.2" height="187.2" filterUnits="userSpaceOnUse" color-interpolation-filters="sRGB">
<feFlood flood-opacity="0" result="BackgroundImageFix"/>
<feColorMatrix in="SourceAlpha" type="matrix" values="0 0 0 0 0 0 0 0 0 0 0 0 0 0 0 0 0 0 127 0" result="hardAlpha"/>
<feOffset/>
<feGaussianBlur stdDeviation="13.3"/>
<feComposite in2="hardAlpha" operator="out"/>
<feColorMatrix type="matrix" values="0 0 0 0 0 0 0 0 0 0 0 0 0 0 0 0 0 0 0.15 0"/>
<feBlend mode="normal" in2="BackgroundImageFix" result="effect1_dropShadow_195_112"/>
<feBlend mode="normal" in="SourceGraphic" in2="effect1_dropShadow_195_112" result="shape"/>
</filter>
</defs>
</svg>
